<?xml version="1.0" encoding="utf-8"?>
<!-- Generator: Adobe Illustrator 24.0.2, SVG Export Plug-In . SVG Version: 6.00 Build 0)  -->
<svg version="1.0" id="Layer_1" xmlns="http://www.w3.org/2000/svg" xmlns:xlink="http://www.w3.org/1999/xlink" x="0px" y="0px"
	 viewBox="0 0 925 669" style="enable-background:new 0 0 925 669;" xml:space="preserve">
<style type="text/css">
	.st0{fill:none;}
	.st1{fill:#E6E6E6;}
	.st2{opacity:0.1;enable-background:new    ;}
	.st3{fill:#3F3D56;}
	.st4{fill:#F2F2F2;}
	.st5{fill:#FFB8B8;}
	.st6{fill:#2F2E41;}
	.st7{fill:#FF3E7A;}
	.st8{display:none;}
	.st9{display:inline;fill:none;}
	.st10{fill:#0FFFFF;}
	.st11{fill:none;stroke:#02C9C9;stroke-width:1.5;stroke-opacity:0.1;}
	.st12{fill:none;stroke:#02C9C9;stroke-width:1.5;stroke-opacity:5.000000e-02;}
</style>
<title>feeling_proud</title>
<g>
	<g>
		<title>background</title>
		<rect id="canvas_background" y="-1" class="st0" width="705.7" height="671.7"/>
	</g>
	<g>
		<title>Layer 1</title>
		<g id="svg_24">
			<polygon id="svg_1" class="st1" points="196.6,386.1 196.6,567.7 166.3,617.2 164,621 44.6,621 42.2,386.1 			"/>
			<polygon id="svg_2" class="st2" points="196.6,386.1 196.6,567.7 166.3,617.2 164.5,386.1 			"/>
			<polygon id="svg_3" class="st1" points="484.7,381.3 484.7,562.9 515,612.3 517.3,616.1 636.6,616.1 639,381.3 			"/>
			<polygon id="svg_4" class="st2" points="484.7,381.3 484.7,562.9 515,612.3 516.8,381.3 			"/>
			<polygon id="svg_5" class="st1" points="6.1,377.7 6.1,388.6 654.7,388.6 654.7,372.8 594.4,341.4 59.1,341.4 			"/>
			<polygon id="svg_6" class="st2" points="6.1,377.7 6.1,388.6 654.7,388.6 654.7,372.8 			"/>
			<polygon id="svg_7" class="st3" points="561.9,432.1 590.8,432.1 602.9,423.7 548.6,423.7 			"/>
			<polygon id="svg_8" class="st3" points="561.9,467.2 590.8,467.2 602.9,458.8 548.6,458.8 			"/>
			<polygon id="svg_9" class="st3" points="561.9,509.9 590.8,509.9 602.9,501.5 548.6,501.5 			"/>
			<polygon id="svg_10" class="st3" points="561.9,559.5 590.8,559.5 602.9,551.1 548.6,551.1 			"/>
			<polygon id="svg_11" class="st3" points="119.4,437 90.5,437 78.4,428.5 132.7,428.5 			"/>
			<polygon id="svg_12" class="st3" points="119.4,472.1 90.5,472.1 78.4,463.6 132.7,463.6 			"/>
			<polygon id="svg_13" class="st3" points="119.4,514.8 90.5,514.8 78.4,506.3 132.7,506.3 			"/>
			<polygon id="svg_14" class="st3" points="119.4,564.4 90.5,564.4 78.4,555.9 132.7,555.9 			"/>
			<path id="svg_15" class="st3" d="M99.7,131.4h243.6c5.1,0,9.2,4.1,9.2,9.2l0,0v164.7c0,5.1-4.1,9.2-9.2,9.2l0,0h-92.5l3.5,22.2
				c0,0,19.8,10.6,5.9,10.9s-79.5,0-79.5,0s-12.7,0,7.4-11.2l3.3-21.9H99.7c-5.1,0-9.2-4.1-9.2-9.2l0,0V140.7
				C90.5,135.6,94.6,131.4,99.7,131.4L99.7,131.4L99.7,131.4z"/>
			<rect id="svg_16" x="99.3" y="141.2" class="st4" width="244.4" height="137.3"/>
			<ellipse id="svg_17" class="st4" cx="221.5" cy="136.9" rx="1.5" ry="1.5"/>
			<ellipse id="svg_18" class="st4" cx="221.5" cy="302.1" rx="5.7" ry="5.8"/>
			<polygon id="svg_19" class="st3" points="113.4,364 113.4,367.1 279.8,367.1 279.8,364.6 279.6,364 275.5,352.8 116.8,352.8 			
				"/>
			<path id="svg_20" class="st3" d="M317.3,361.1c0.3,1.3,1.4,2.7,4,4c9.3,4.7,28.2-1.2,28.2-1.2s14.5-2.5,14.5-9
				c-0.4-0.3-0.8-0.5-1.3-0.8c-3.9-2.1-16.8-7.2-39.8,0.2c-1.7,0.5-3.2,1.5-4.4,2.9C317.5,358.2,317,359.6,317.3,361.1L317.3,361.1z
				"/>
			<path id="svg_21" class="st2" d="M316.8,361c11.4,4.4,21.5,4.7,31.9-2.5c3.9-2.9,8.7-4.5,13.6-4.5c-3.9-2.1-16.8-7.2-39.8,0.2
				c-1.7,0.5-3.2,1.5-4.4,2.9C317,358.1,316.6,359.5,316.8,361z"/>
			<ellipse id="svg_22" class="st4" cx="326.5" cy="357.5" rx="4" ry="1.2"/>
			<polygon id="svg_23" class="st2" points="112.9,364.1 112.9,367.2 279.3,367.2 279.3,364.7 279.1,364.1 			"/>
			<path id="svg_25" class="st5" d="M621,86.7c0,0-3.4,28.2,9,30.5s-11.3,40.7-11.3,40.7l-56.3,6.8l13.5-45.2c0,0,9-3.4,3.4-26
				C573.7,70.9,621,86.7,621,86.7L621,86.7z"/>
			<polygon id="svg_26" class="st5" points="655.3,565 650.8,627.1 627.2,627.1 634,565 			"/>
			<polygon id="svg_27" class="st5" points="482,454.4 478.7,506.4 452.8,495.1 462.9,452.2 			"/>
			<path id="svg_28" class="st6" d="M672.2,334.7c0,0-1.1,65.5-7.9,87s-5.6,22.6-4.5,26s2.3,1.1,2.3,6.8s2.3,94.9,0,102.8
				c-2.3,7.9,6.8,21.5,0,22.6s-38.3,0-39.4-6.8c-1.1-6.8,9-9,4.5-13.6c-4.5-4.5-11.3-97.2-11.3-97.2L600.2,398l-29.3-33.9H509
				l-19.1,74.6c0,0,7.9,21.5,2.3,21.5s-39.4,6.8-39.4-18.1s11.3-98.3,13.5-100.5c2.3-2.3-1.1-10.2,2.3-13.6s42.8-27.1,57.4-31.6
				c14.6-4.5,35.2-9.9,35.2-9.9L672.2,334.7L672.2,334.7z"/>
			<path id="svg_29" class="st6" d="M452.8,486.1c0,0,16.9-5.6,24.8,11.3s4.5,21.5,4.5,21.5s-25.9,9-30.4,4.5c-2-2-8.2-2.6-14.6-2.8
				c-9.7-0.2-12.3-14.1-3.1-17.3c0.3-0.1,0.6-0.2,0.8-0.3C443.8,500.8,452.8,486.1,452.8,486.1L452.8,486.1z"/>
			<ellipse id="svg_30" class="st5" cx="595.7" cy="71.5" rx="33" ry="33.3"/>
			<path id="svg_31" class="st7" d="M639.6,131.3c0,0-55.1,11.3-68.6-6.8s-19.1,50.8-19.1,50.8l-6.8,72.3l10.1,39.5
				c0,0,52.9,42.9,69.8,46.3s42.8,5.6,42.8,5.6s-7.9-125.4-7.9-127.7S639.6,131.3,639.6,131.3z"/>
			<path id="svg_32" class="st6" d="M622.8,110.2c0,0,12.3-7.1,15.6-0.3s34.9,23.7,38.3,23.7s-6.8,93.8-2.3,105.1
				c4.5,11.3,25.9,93.8,13.5,100.5s-3.4-6.8-15.8,10.2s-73.1,16.9-76.5,10.2s27-57.6,21.4-105.1c-5.6-47.4-14.6-113-6.8-122
				C618.2,123.4,622.8,110.2,622.8,110.2L622.8,110.2z"/>
			<path id="svg_33" class="st6" d="M582.2,117.8l-1.6-5.4c0,0-46.8,15.6-49.1,25.7s-1.1,81.3,6.8,87c7.9,5.6,19.1,14.7,11.3,28.2
				c-7.9,13.6-16.9,28.2-23.6,29.4c-6.8,1.1-19.1,9-15.8,16.9c3.3,7.9,43.9-6.8,43.9-6.8s27-20.3,25.9-52
				C578.8,209.3,582.2,117.8,582.2,117.8L582.2,117.8z"/>
			<path id="svg_34" class="st5" d="M542.8,251.1l27,50.8c0,0,39.4,40.7,16.9,45.2s-34.9-37.3-34.9-37.3L522.5,268L542.8,251.1
				L542.8,251.1z"/>
			<path id="svg_36" class="st6" d="M542.8,133.6l-10.5,2.8c0,0-24.4,62.7-18.8,105.7c5.6,42.9,9,33.9,9,33.9s9-20.3,29.3-15.8
				L542.8,133.6L542.8,133.6z"/>
			<path id="svg_37" class="st6" d="M653.8,618.9c2.7,3.7,2.2,9,4.6,12.9c2.1,3.4,6,5.2,8.6,8.2c0.8,1,1.6,2.1,2.2,3.2
				c2.4,4.1,4.4,9.3,2,13.4c-1.9,3.3-5.9,4.6-9.6,5.4c-4.7,1.1-9.5,2-14.2,1.1c-4.7-0.8-9.3-3.7-11-8.3c-0.3-1.1-0.7-2.2-1.2-3.3
				c-2.6-5.1-10.6-5.1-13.2-10.1c-1.8-3.5-0.1-7.8,1.5-11.4l5.1-11c1.7-3.6,8.6-1.5,12.2-2.4C645.5,615.5,650.4,614.3,653.8,618.9z"
				/>
			<path id="svg_38" class="st5" d="M691.3,273.7L644,347.1c0,0-29.3,37.3-38.3,20.3s31.5-45.2,31.5-45.2l30.4-56.5L691.3,273.7z"/>
			<path id="svg_39" class="st6" d="M667.7,135.9l9-2.3c0,0,18,5.6,22.5,29.4c4.5,23.7,1.1,118.6-4.5,119.7s-27.8-16.5-31.3-12.8
				s7.7-15.5,4.3-25.6C664.3,234.1,667.7,135.9,667.7,135.9L667.7,135.9z"/>
			<g id="f3c2397c-d780-4cc6-97d8-1503d8277a2c">
				<rect id="ad41612f-86f7-46b2-a964-3a5da7bcf3cf" x="244.6" y="186.3" class="st7" width="29.1" height="7"/>
				<rect id="b9a0b375-cc2a-4c59-8850-661af54e4f62" x="143.9" y="186.3" class="st7" width="10.2" height="7"/>
				<rect id="e174c2ab-9bc5-41ec-b37c-b06fbf8a9878" x="123.4" y="186.3" class="st7" width="10.2" height="7"/>
				<rect id="ba2479ac-4c7d-43b4-a028-73b1e20e4002" x="164.9" y="186.3" class="st7" width="69.5" height="7"/>
				<rect id="ac60ef86-00f2-480b-8171-28b6fdfc1958" x="281.2" y="231.7" class="st7" width="29.1" height="7"/>
				<rect id="b3d8298d-cd65-487a-8b19-4cee946356e7" x="180.5" y="231.7" class="st7" width="10.2" height="7"/>
				<rect id="ed27f15f-f0c4-4569-8330-a6688f8e356c" x="160.1" y="231.7" class="st7" width="10.2" height="7"/>
				<rect id="f685c005-adaf-4d60-acda-005b037d82a6" x="201.5" y="231.7" class="st7" width="69.5" height="7"/>
				<rect id="eca7c7fc-83f8-48ca-a588-6606db47af3f" x="161.1" y="202" class="st7" width="29.1" height="7"/>
				<rect id="a71b5b2f-f8b9-481d-a301-5e3357e5fe42" x="121.8" y="202" class="st7" width="29.1" height="7"/>
				<rect id="abb3a25a-f854-41fc-8391-e6ad9fbe2417" x="300.1" y="202" class="st7" width="10.2" height="7"/>
				<rect id="add2b425-b775-4eb5-9c25-8c4c14f957c9" x="279.6" y="202" class="st7" width="10.2" height="7"/>
				<rect id="b7159612-3b84-4b0b-a885-612eaab04c06" x="199.9" y="202" class="st7" width="69.5" height="7"/>
				<rect id="edfc7301-4de5-47dc-80e2-1ae2da982d6d" x="221.5" y="217.1" class="st7" width="29.1" height="7"/>
				<rect id="e1009f91-6275-4375-80fa-0d778e331fdc" x="260.8" y="217.1" class="st7" width="29.1" height="7"/>
				<rect id="a060fb9f-1f1a-4862-9a69-16dd49199e18" x="300.1" y="217.1" class="st7" width="10.2" height="7"/>
				<rect id="b6754d5f-104f-449c-b9a9-cf9ac82bf5fe" x="121.8" y="217.1" class="st7" width="10.2" height="7"/>
				<rect id="e6ed1ccd-2cfd-450f-a339-07df3a1ee6bb" x="142.3" y="217.1" class="st7" width="69.5" height="7"/>
			</g>
			<rect id="svg_53" x="576.6" y="30.2" class="st7" width="30.9" height="15.5"/>
			<g id="svg_81">
				<g id="svg_79" transform="matrix(-0.3194945651161528,0,0,0.287804040032979,669.4222946561904,-24.900714781265073) ">
					<title  stroke="null" transform="translate(0,-10.229430198669434) translate(-34.012943267822266,-105.70411682128906) ">
						background</title>
					<polygon id="svg_77" class="st0" points="-91.1,513.8 544.2,513.8 544.2,513.8 					"/>
					<g id="svg_75" class="st8">
						<polygon id="svg_76" class="st9" points="-160.4,735.8 543.2,735.8 543.2,735.8 						"/>
					</g>
				</g>
				<g id="svg_80" transform="matrix(-0.3194945651161528,0,0,0.287804040032979,669.4222946561904,-24.900714781265073) ">
					<title  stroke="null" transform="translate(0,-10.229430198669434) translate(-34.012943267822266,-105.70411682128906) ">
						Layer 1</title>
					<path id="svg_74" class="st10" d="M173.7,102.2c0,0,118.2,36.5,112.9,33.2c-5.3-3.3,23.6,11.3,36.1,17.2
						c12.5,6,37.4,35.2,37.4,34.6c0,0.5,11.8,41,11.8,40.5c0,0.5,3.9,39,3.9,38.5c0,0.5-3.3,15.1-3.3,15.1s-5.3,18.6-5.3,18
						c0,0.5-33.5,78.8-33.5,78.3c0,0.5-7.9,9.8-7.9,9.8s0-18.6,0-19.1c0,0.5-15.8-37.9-15.8-38.5c0,0.5-29.5-45.9-29.5-46.4
						c0,0.5-30.9-50.5-30.9-51.1c0,0.5-21-34-21-34.5c0,0.5-11.2,13.8-11.2,13.3c0,0.5-12.5,25.1-12.5,24.5
						c0,0.5-11.2,27.1-11.2,26.5c0,0.5-36.1,60.2-36.1,59.7c0,0.5-16.4,44.3-16.4,43.8c0,0.5-4.6,25.7-4.6,25.7s-7.9-11.9-7.9-12.5
						c0,0.5-15.8-10.1-15.8-10.6c0,0.5-26.9-57.8-26.9-58.4c0,0.5-7.2-66.5-7.2-67c0,0.5,2.6-29.3,2.6-29.9
						c0,0.5,10.5-22.7,10.5-23.2c0,0.5,9.8-17.4,9.8-17.9c0,0.5,4.6-13.4,4.6-13.9c0,0.5,6.6-8.1,6.6-8.6c0,0.5,47.3-43.3,47.3-43.8
						c0,0.5,5.3-2.8,5.3-3.3C165.9,102.9,173.7,102.2,173.7,102.2L173.7,102.2z"/>
					<path id="svg_73" class="st11" d="M229.5,199.1c0-0.6,0-0.9,0-1.8c0-0.3,0-1.2,0-1.5c0-0.9-0.3-0.9-0.3-1.2
						c0-0.9-0.6-1.2-0.6-2.1c0-0.3-0.5-1.2-0.6-1.5c-0.3-1-0.1-1.3-0.6-2.1c-0.3-0.6-0.8-0.9-1.2-1.5c-0.5-0.8-0.2-0.8-0.6-1.2
						c-0.6-0.6,0.5-1.3,0-2.1c-0.3-0.6-0.6-1.2-0.6-1.5c0-0.9-0.2-0.8-0.6-1.2c-0.6-0.6,0-1.2,0-2.1c0-0.3-0.2-0.9-0.6-1.5
						c-0.5-0.8,0-1.2,0-2.1c0-0.3-0.2-0.9-0.6-1.5c-0.5-0.8,0-1.2,0-2.1c0-0.3-0.6-1.2-0.6-1.5c0-0.9,0-1.2,0-2.1c0-0.3,0-1.2,0-2.4
						c0-0.3,0-1.2,0-1.5c0-1.2,0-2.1,0-3.2c0-0.3,0-1.2,0-1.5c0-1.2,0-2.1,0-3.2c0-0.3,0-1.2,0-1.5c0-1.2,0-2.1,0-2.4
						c0-1.2,0.6-2.1,0.6-2.4c0-0.9-0.1-1.2,0-2.1c0.1-1.2,0.7-1.2,1.2-2.4c0.1-0.3,0.1-1.1,0.3-1.5c0.3-0.8,0.4-0.9,0.9-2.1
						c0.1-0.3,0.1-1.1,0.3-1.5c0.3-0.8-0.5-1.3,0-2.1s1-1.2,1.2-2.4c0-0.3,0.8-1.2,0.9-1.5c0.1-1.2,0.5-1.4,1.2-2.1
						c0.8-0.8,0.3-1.5,0.3-2.4c0-0.3,0.3-0.7,0.9-1.5c0.5-0.7-0.2-1.3,0.3-2.1c0.5-0.8,0.7-1.3,0.9-1.5s0.3-0.9,0.3-1.2h0.9v-0.9"/>
					<path id="svg_72" class="st11" d="M224.2,189.8c-0.7,0-1.4,0.1-2,0.3c-0.9,0.4-1.1,1-2,1.4c-0.6,0.3-1.1,0.3-2,0.7
						c-0.6,0.3-1.4,0.7-2,0.7s-1.4,0.4-2,0.7c-0.9,0.4-1.2,1-2.7,1.4c-0.7,0.2-1.4,0.5-2,0.7c-1.5,0.4-2.1,1.1-2.7,1.4
						c-0.9,0.4-1.6,0.9-2,1.4c-0.5,0.5-1.4,0.5-2,0.7c-1.5,0.4-2,0.7-2.7,1.4c-0.7,0.7-1.1,1-2,1.4c-1.3,0.5-2.1,0.4-2.7,0.7
						c-0.9,0.4-1.4,0.4-2,0.7c-0.9,0.4-0.9,0.9-1.4,1.4c-1,1-2.1,0.4-2.7,0.7c-0.9,0.4-1.1,1-2,1.4c-0.6,0.3-1.1,1-2,1.4
						c-0.6,0.3-0.9,0.2-1.4,0.7s-1.6,0.2-2,0.7c-0.5,0.5-0.5,1-1.4,1.4c-0.6,0.3-1.4,0.4-2,0.7c-0.9,0.4-1.4,0.4-2,0.7
						c-0.9,0.4-1.1,1-2,1.4c-0.6,0.3-1.4,0.7-2,0.7s-1.6,0.2-2,0.7c-0.5,0.5-1.1,1-2,1.4c-0.6,0.3-1.1,1-2,1.4
						c-0.6,0.3-2,0.7-2.7,1.4s-1.5,1.2-2.7,2.1c-0.8,0.6-1.3,0.8-2,1.4c-1.2,0.9-2.1,1.1-2.7,1.4c-0.9,0.4-1.4,1.4-2,2.1
						c-0.7,0.7-1.8,1.7-2.7,2.1c-0.6,0.3-1.4,0.7-2,1.4c-0.7,0.7-2,1.4-2.7,2.1c-0.7,0.7-1.5,1.2-2.7,2.1c-0.8,0.6-1.1,0.7-1.4,1.4
						c-0.4,0.9-1.4,1.1-2,1.4c-0.9,0.4-1.1,1.7-2,2.1c-0.6,0.3-1.4,0.7-2,1.4c-0.7,0.7-1.7,0.5-2,1.4c-0.3,0.6-0.5,1.7-1.4,2.1
						c-0.6,0.3-0.9,0.2-1.4,0.7s-0.4,0.7-0.7,1.4c-0.4,0.9-1.1,0.7-1.4,1.4c-0.4,0.9-1.4,1.4-2,2.1c-0.7,0.7-0.7,1.4-1.4,2.1
						c-0.7,0.7-1.4,1.4-2,2.1c-0.7,0.7-1.4,1.4-2,2.1c-0.7,0.7-0.7,1.4-1.4,2.1c-0.7,0.7-1.1,1.4-1.4,2.1c-0.4,0.9-1.4,1.4-2,2.1
						c-0.7,0.7-1.4,1.4-2,2.1c-0.7,0.7-1.4,1.4-2,2.1c-0.7,0.7-1.4,1.4-2,2.1c-0.7,0.7-1.1,1.7-2,2.1c-0.6,0.3-1.1,0.7-1.4,1.4
						c-0.4,0.9-1.1,1.7-2,2.1c-0.6,0.3-0.9,0.9-1.4,1.4s-0.9,0.2-1.4,0.7s-0.5,1-1.4,1.4c-0.6,0.3-0.9,0.2-1.4,0.7s-0.2,0.9-0.7,1.4
						c-0.5,0.5-0.9,0.2-1.4,0.7s-1,1.2-1.4,2.1c-0.3,0.6-0.9,0.9-1.4,1.4s-0.2,0.9-0.7,1.4s-0.3,1.2-0.7,2.1
						c-0.3,0.6-0.7,0.7-0.7,1.4c0,0.7-0.4,1.4-0.7,2.1c-0.4,0.9-0.2,1.6-0.7,2.1s-0.4,0.7-0.7,1.4c-0.4,0.9-0.2,1.6-0.7,2.1
						s-0.4,0.7-0.7,1.4c-0.4,0.9-0.4,1.4-0.7,2.1c-0.4,0.9-0.4,1.4-0.7,2.1c-0.4,0.9-0.9,0.9-1.4,1.4s-0.2,0.9-0.7,1.4
						s-0.3,1.2-0.7,2.1c-0.3,0.6,0,1.4-0.7,1.4v0.7"/>
					<path id="svg_71" class="st11" d="M220.8,182.9c0,0-0.7-0.2-1.4,0s-1.4,0.3-2,0.3c-0.7,0-1.4-0.3-2,0c-0.9,0.4-1.4,0.7-2,0.7
						s-1.4,0-2,0c-0.6,0-1.4,0-2,0c-0.7,0-1.4-0.3-2,0c-0.9,0.4-1.4,0.7-2,0.7s-1.4,0-2,0c-0.7,0-0.9,0.2-1.4,0.7s-1.4,0-2,0
						c-0.6,0-1.4,0-2,0c-0.7,0-0.7,0.7-1.4,0.7s-1.4,0-2,0s-0.9,0.2-1.4,0.7s-1.4,0-2,0s-0.7,0.7-1.4,0.7s-1.4,0-2,0
						c-0.7,0-1.1,0.3-2,0.7c-0.6,0.3-1.4,0-2,0c-0.7,0-0.7,0.7-1.4,0.7s-1.4,0.7-2,0.7s-1.4-0.3-2,0c-0.9,0.4-1.4,0.7-2,0.7
						c-0.7,0-1.1,0.3-2,0.7c-0.6,0.3-1.1,0.3-2,0.7c-0.6,0.3-1.6-0.5-2,0c-0.5,0.5-0.7,0.7-1.4,0.7s-1.4,0.7-2,0.7
						c-0.7,0-1.1,0.3-2,0.7c-0.6,0.3-0.9,0.2-1.4,0.7s-1.1,0.3-2,0.7c-0.6,0.3-1.2,1-2.7,1.4c-0.7,0.2-1.1,1-2,1.4
						c-0.6,0.3-1.1,0.3-2,0.7c-0.6,0.3-1.1,0.3-2,0.7c-0.6,0.3-1.1,0.3-2,0.7c-0.6,0.3-1.4-0.3-2,0c-0.9,0.4-0.9,0.9-1.4,1.4
						s-1.1,0.3-2,0.7c-0.6,0.3-1.1,0.3-2,0.7c-0.6,0.3-1.4,0.7-2,0.7s-1.6,0.2-2,0.7c-0.5,0.5-0.5,1-1.4,1.4
						c-0.6,0.3-0.7,0.4-1.4,0.7c-0.9,0.4-1.4,1.4-2,1.4c-0.7,0-1.6,0.2-2,0.7c-0.5,0.5-0.2,0.9-0.7,1.4s-1.6,0.2-2,0.7
						s-0.5,1-1.4,1.4c-0.6,0.3-0.7,0.4-1.4,0.7c-0.9,0.4-0.9,0.9-1.4,1.4s-0.7,0.4-1.4,0.7c-0.9,0.4-1.1,1-2,1.4
						c-0.6,0.3-0.7,0.4-1.4,0.7c-0.9,0.4-1.6,0.9-2,1.4c-0.5,0.5-0.2,0.9-0.7,1.4s-0.9,0.2-1.4,0.7c-0.5,0.5-0.7,0.4-1.4,0.7
						c-0.9,0.4-1.4,0.4-2,0.7c-0.9,0.4-1.6,0.2-2,0.7c-0.5,0.5-0.9,0.2-1.4,0.7s-0.5,1-1.4,1.4c-0.6,0.3-0.9,0.2-1.4,0.7
						s-1.4,0.7-2,0.7c-0.7,0-0.7,0.7-1.4,0.7c-0.7,0-0.7,0.7-1.4,0.7c-0.7,0-0.7,0.7-1.4,0.7c-0.7,0-1.1,0.3-2,0.7
						c-0.6,0.3-0.7,0.7-1.4,0.7c-0.7,0-0.7,0.7-1.4,0.7c-0.7,0-0.9,0.2-1.4,0.7s-0.9,0.2-1.4,0.7s-0.9,0.2-1.4,0.7s-1.6,0.2-2,0.7
						c-0.5,0.5-0.5,1-1.4,1.4c-0.6,0.3-0.9,0.2-1.4,0.7s-0.7,0.7-1.4,1.4c-0.7,0.7-0.9,0.9-1.4,1.4s-0.9,0.2-1.4,0.7
						c-0.5,0.5-0.2,0.9-0.7,1.4c-0.5,0.5-0.9,0.2-1.4,0.7s-0.7,0.7-1.4,0.7v0.7h-0.7"/>
					<path id="svg_70" class="st11" d="M222.5,175.5c-1,0-2,0-3.1,0s-2,0-3.1,0c-1,0-2,0-3.1,0c-1,0-2,0-3.1,0c-2,0-3.1,0-4.1,0
						s-2,0-3.1,0s-2,0-3.1,0c-1.1,0-2,0-3.1,0s-2,0-3.1,0c-1,0-2,0-3.1,0c-1,0-1,0.5-2,0.5c-1,0-2.3-0.7-3.1,0c-0.7,0.7-1,1-2,1
						s-2,0-3.1,0c-1,0-1,1-2,1c-1,0-1.3,0.3-2,1s-2,0-3.1,0c-1,0-1,1-2,1s-2,0-3.1,0c-1,0-2.1,0.6-3.1,1c-1.3,0.6-2,1-4.1,1
						c-1,0-2,1-3.1,1c-1,0-2,0-3.1,0c-1.1,0-2.3-0.7-3.1,0s-1.6-0.4-3.1,1c-0.7,0.7-1,1-2,1s-2,0-3.1,0c-1,0-1,1-2,1s-2.3-0.7-3.1,0
						c-0.7,0.7-1.1,0.6-2,1c-1.3,0.6-1.3,1.3-2,2.1c-0.7,0.7-1.7,0.5-3.1,1c-0.9,0.4-1.3,0.3-2,1s-1.3,0.3-2,1s-2.3-0.7-3.1,0
						s-1.3,0.3-2,1s-1.1,0.6-2,1c-1.3,0.6-2,1-3.1,1c-1,0-1,1-2,1s-1,1-2,1s-2.3-0.7-3.1,0s-0.7,1.5-2,2.1c-0.9,0.4-2.3-0.7-3.1,0
						c-0.8,0.7-1,1-2,1s-1,1-2,1c-1,0-1,1-2,1s-2.1,0.6-3.1,1c-1.3,0.6-2.3,0.3-3.1,1c-0.7,0.7-1.3,0.3-2,1s-1.3,0.3-2,1
						c-0.7,0.7-1,1-2,1h-1v1"/>
					<path id="svg_69" class="st11" d="M221.4,169.8c0-0.5-1-0.5-2-0.5s-1-1.5-3.1-1.5c-1,0-2.1,0.2-3.1,0c-1.1-0.3-2.2,0-3.1-0.5
						c-1.6-0.9-2-1.5-3.1-1.5s-2-0.5-3.1-0.5s-1-1.5-2-1.5s-1-0.5-2-0.5c-1,0-2-1.5-3.1-1.5s-2.3,0.7-3.1,0c-0.4-0.4-1-0.5-2-0.5
						s-2,0-3.1,0c-1.1,0-2,0-3.1,0c-1,0-1-1.5-2-1.5s-2,0-3.1,0c-1,0-2,0-3.1,0c-1,0-2,0-3.1,0c-1,0-2,0-3.1,0s-2,0-3.1,0
						c-1,0-2,0-3.1,0c-1,0-2,0-3.1,0c-1,0-2,0-3.1,0c-1,0-2,0-3.1,0s-2,0-3.1,0s-2,0-3.1,0c-1,0-2,0-3.1,0c-1,0-2,0-3.1,0
						c-1,0-2,0-3.1,0s-2,0-3.1,0s-2,0-3.1,0c-1,0-2,0-3.1,0c-1,0-2,0-3.1,0c-1,0-1.3,0.3-2,1s-2,0-3.1,0c-1,0-2,0-3.1,0
						c-1,0-2,0-3.1,0c-1,0-1,1-2,1s-2,0-3.1,0c-1,0-2,0-3.1,0c-1,0-2,0-3.1,0v1"/>
					<path id="svg_68" class="st11" d="M369.9,290.4c0-1,0-1.5,0-3.1c0-0.5-0.7-1.8-1.5-2.6c-1.4-1.2-0.7-2.4-2-3.6
						c-0.9-0.8-1.7-0.8-3.1-2.1c-0.9-0.8-1.9-2.1-2-2.6c-0.5-1.8-1.7-2.4-3.1-3.6c-0.9-0.8-2.3-1.3-3.1-2.1c-0.4-0.4-1.2-1.8-2-2.6
						c-1.4-1.2-2.3-1.3-3.1-2.1c-1.1-1.1-0.9-1.6-1-2.1c-0.5-1.8-2.2-1.3-3.1-2.1c-1.4-1.2-1.9-1.6-2-2.1c-0.5-1.8-1.9-1.6-2-2.1
						c-0.5-1.8-1-2.5-2-3.6c-0.7-0.7-1-1-2-2.1c-0.7-0.7-1.1,0-2-0.5c-1.6-0.9-1-2.1-2-2.1s-1-1.3-2-1.5c-1.1-0.3-1-1-2-2.1
						c-0.7-0.7-2.2,0-3.1-0.5c-1.6-0.9-1.4-2.7-3.1-3.6c-0.9-0.5-2.5-0.3-3.1-2.1c-0.1-0.5-1.5-0.3-2-2.1c-0.1-0.5-0.4-1.2-2-2.1
						c-0.9-0.5-1.1,0-2-0.5c-1.6-0.9-1.1-1.6-2-2.1c-1.6-0.9-2.3-1.3-3.1-2.1c-1.1-1.1-0.7-1.7-1-2.1c-0.7-0.7-1-0.5-2-1.5
						c-0.7-0.7-1-0.5-2-0.5s-1-1.3-2-1.5c-1.1-0.3-1-1-2-2.1c-0.7-0.7-1.7-0.2-2-0.5c-0.7-0.7-2.1-1.3-3.1-1.5c-1.1-0.3-1-1-2-2.1
						c-0.7-0.7-2.5,0.5-3.1-0.5c-0.8-1.3-0.9-1.8-2-2.1c-1-0.2-1-1.5-2-1.5c-1,0-2.3,0.2-3.1-0.5c-1.1-1.1-1.3-0.8-2-1.5
						c-0.4-0.4-1.3,0.2-2-0.5c-1.1-1.1-0.9-1.8-2-2.1c-1-0.2-1.1-1.1-3.1-1.5c-1.1-0.3-1-1-2-2.1c-0.7-0.7-1.7-0.2-2-0.5
						c-0.7-0.7-1-1.3-2-1.5c-1.1-0.3-1-1-2-2.1c-0.7-0.7-1-0.5-2-0.5c-1,0-1-1.3-2-1.5c-1.1-0.3-2.3-1.3-3.1-2.1
						c-0.4-0.4-1.5-0.3-2-2.1c-0.1-0.5-0.7-0.8-2-2.1c-0.9-0.8-1-2.1-2-2.1s-1.5-0.3-2-2.1c-0.1-0.5-0.2-0.7-1-2.1
						c-0.6-1-0.9-2.3-2-2.6c-1-0.2-0.7-1.7-1-2.1c-0.7-0.7-1.3-0.8-2-1.5c-0.4-0.4-1-0.5-1-2.1c0-0.5-0.2-0.7-1-2.1
						c-0.6-1-0.9-2.1-1-2.6c-0.5-1.8-1.5-1.8-2-3.6c-0.1-0.5-1-2.6-1-4.6c0-1.5-1-3.6-1-4.1c0-2.1-1-3.6-1-5.7v-2.1v-0.5v-1.5"/>
					<path id="svg_67" class="st12" d="M294.9,140.9c1,0,0.8,0.3,1.5,1c1.1,1.1,1.5,1,2,1c1.5,0,1.5,1,2,1c1.5,0,1.7,0.7,2,1
						c0.7,0.7,1.7,0.7,2,1c0.7,0.7,1.1,1.5,2,2.1c1.3,0.8,1.7,0.7,2,1c0.7,0.7,0.8,1.3,1.5,2.1c0.4,0.4,0.5,1,2,1c0.5,0,1-0.1,2,1
						c0.7,0.7-0.2,1.3,0.5,2.1c1.1,1.1,1.6,0.9,2,1c1.8,0.5,2.4,1.7,3.6,3.1c0.8,0.9,1.8,2.2,2.6,3.1c1.2,1.4,1.8,1.2,4.1,3.1
						c1.4,1.2,3.9,2.8,5.6,5.2c0.7,0.9,2.9,2.7,4.1,4.1c0.8,0.9,2.4,2.3,4.6,4.1c1.4,1.2,1.8,2.3,4.1,4.1c1.4,1.2,2.3,1.2,3.6,2.1
						c1,0.6,0.3,2.6,2,3.1c0.5,0.1,2.2,0.7,2.6,1c0.7,0.7,1.7,1.7,2,2.1c0.7,0.7,1.5,1,1.5,2.1c0,1-0.2,1.3,0.5,2.1
						c1.1,1.1,1.8,0.9,2,2.1c0.5,2,1.8,3,2,4.1c0.2,1,0.7,1.5,1.5,3.1c0.5,0.9-0.9,2.7,0.5,4.1c1.1,1.1,1.8,0.9,2,2.1
						c0.2,1,0,2.1,1.5,3.1v1v1h0.5"/>
					<path id="svg_66" class="st12" d="M204.1,223.4c0,1-0.6,1.1-1,2.1c-0.6,1.3-2,2.1-3.1,4.1c-1,2.1-2,4.1-3.1,6.2
						c-1,2.1-1.9,4.2-3.1,6.2c-1.8,3.2-2.8,5.2-4.1,8.2c-0.9,2.1-2.2,5.1-3.1,7.2c-1.2,3-2,6.2-3.1,9.3c-1,3.1-2.6,6.2-3.1,9.3
						c-0.5,3.2-1.8,6.3-3.1,9.3c-0.9,2.1-2,6.2-2,8.2l-1,2.1l-1,3.1"/>
					<path id="svg_65" class="st12" d="M175.5,277c0,1-0.2,1.9-1,3.1c-1.3,1.9-1.9,5.2-3.1,7.2c-1.8,3.2-2.8,5.2-4.1,8.2
						c-0.9,2.1-2.7,6.4-5.1,10.3c-2.7,4.4-5.3,7.1-7.1,10.3c-1.1,2-2.8,5.4-5.1,8.2c-1.8,2.3-4.3,5.1-5.1,7.2
						c-1.5,4-3.1,8.2-4.1,12.4c-1,4.1-2.9,10.4-4.1,14.4c-1.8,6.3-3.5,11.2-5.1,18.6c-1.4,6.1-2.7,13.5-4.1,18.6
						c-1.7,6.3-3.1,13.4-4.1,18.6l-2,6.2"/>
					<path id="svg_64" class="st12" d="M316.8,166.7c2,2.1,3.3,3.3,6.1,6.2c3.3,3.4,7.7,8.2,10.2,11.3c4.1,5.1,8.2,8.9,11.7,14.4
						c2.5,3.9,4.8,9.2,6.6,13.4c1.7,4,3.4,9.4,5.6,14.4c1.9,4.2,2.3,8.3,4.6,13.4c1.9,4.2,4.4,9.1,6.1,13.4c2.5,6,4.1,10.3,6.1,15.5
						l1.5,3.1"/>
					<path id="svg_63" class="st11" d="M224,192.5c0,0-0.3,0.3-1,1c-0.4,0.4-1.6,1.5-2.6,2.1c-1.3,0.8-2.5-0.1-3.6,1
						c-0.7,0.7,0.2,1.3-0.5,2.1c-1.1,1.1-2.5-0.1-3.6,1c-0.7,0.7,0.2,1.3-0.5,2.1c-1.1,1.1-1.3,0.3-2,1c-1.1,1.1-1.3,0.3-2,1
						c-1.1,1.1-1.6,0.9-2,1c-1.8,0.5-2.5,1-3.6,2.1c-0.7,0.7,0.2,1.3-0.5,2.1c-1.1,1.1-1.6,0.9-2,1c-1.8,0.5-1.3,1.3-2,2.1
						c-1.1,1.1-1.8,1.5-3.6,2.1c-0.5,0.1-0.7,0.2-2,1c-1,0.6-1.3,1.3-2,2.1c-0.4,0.4-1-0.1-2,1c-0.7,0.7-0.8,0.7-2,2.1
						c-0.8,0.9-1.3,1.3-2,2.1c-0.4,0.4-1-0.1-2,1c-0.7,0.7-1.2,0.4-2,2.1c-0.5,0.9,0.2,1.3-0.5,2.1c-1.1,1.1-1.6,0.9-2,1
						c-1.8,0.5-1.7,1.7-2,2.1c-0.7,0.7-0.8,1.3-1.5,2.1c-0.4,0.4-1-0.1-2,1c-0.7,0.7-0.8,0.7-2,2.1c-0.8,0.9-1,1-2,2.1
						c-0.7,0.7,0.2,1.3-0.5,2.1c-1.1,1.1-1.7,0.7-2,1c-0.7,0.7-1.8,0.9-2,2.1c-0.2,1-1.7,1.7-2,2.1c-0.7,0.7-1.8,2-2,3.1
						c-0.2,1-1.7,1.7-2,2.1c-0.7,0.7-0.8,2.4-1.5,3.1c-0.4,0.4-0.8,0.7-2,2.1c-0.8,0.9-1,1-2,2.1c-0.7,0.7,0.2,1.3-0.5,2.1
						c-1.1,1.1-1.7,0.7-2,1c-0.7,0.7-1.8,2-2,3.1c-0.2,1-1.8,0.9-2,2.1c-0.2,1-0.8,2.4-1.5,3.1c-0.4,0.4-1-0.1-2,1
						c-0.7,0.7,0,1.2-0.5,2.1c-0.9,1.6-1.7,1.7-2,2.1c-0.7,0.7-1.3,1.1-1.5,2.1c-0.3,1.1-1,1-2,2.1c-0.7,0.7-0.1,1.7-0.5,2.1
						c-0.7,0.7-1.5,1-1.5,2.1c0,1,0,1.2-0.5,2.1c-0.9,1.6-1.3,2.1-1.5,3.1c-0.3,1.1-1,1-2,2.1c-0.7,0.7-0.1,1.7-0.5,2.1
						c-0.7,0.7-0.8,2.4-1.5,3.1c-0.4,0.4,0.2,1.3-0.5,2.1c-1.1,1.1-1.8,0.9-2,2.1c-0.2,1-0.8,1.3-1.5,2.1c-0.4,0.4,0.2,1.3-0.5,2.1
						c-1.1,1.1-0.8,1.3-1.5,2.1c-0.4,0.4,0.2,1.3-0.5,2.1c-1.1,1.1-0.8,1.3-1.5,2.1c-0.4,0.4,0,1.2-0.5,2.1c-0.9,1.6-1.7,1.7-2,2.1
						c-0.7,0.7-0.4,1-1.5,2.1c-0.7,0.7-0.1,1.7-0.5,2.1c-0.7,0.7-0.4,1-1.5,2.1c-0.7,0.7-0.1,1.7-0.5,2.1c-0.7,0.7,0.7,2.4,0,3.1
						c-1.1,1.1-1.5,1-1.5,2.1c0,1-0.5,2.1-0.5,3.1s0,2.1,0,3.1s-1.5,1-1.5,2.1c0,1,0,2.1,0,3.1s0,2.1,0,3.1s0.2,2.1,0,3.1
						c-0.3,1.1-0.5,2.1-0.5,3.1s0,2.1,0,3.1h-1.5v1"/>
				</g>
			</g>
		</g>
	</g>
</g>
</svg>
